# This file uses centimeters as units for non-parametric coordinates.

mtllib SM_MuzzleFlash.mtl
g default
v 0.000001 -1.804247 -0.586242
v 0.000001 -1.534779 -1.115103
v 0.000001 -1.115096 -1.534787
v 0.000001 -0.586235 -1.804254
v 0.000001 0.000003 -1.897094
v 0.000001 0.586241 -1.804254
v 0.000001 1.115102 -1.534785
v 0.000001 1.534784 -1.115103
v 0.000001 1.804252 -0.586242
v 0.000001 1.897092 -0.000004
v 0.000001 1.804252 0.586234
v 0.000001 1.534785 1.115095
v 0.000001 1.115102 1.534778
v 0.000001 0.586241 1.804245
v 0.000001 0.000003 1.897085
v 0.000001 -0.586235 1.804245
v 0.000001 -1.115096 1.534777
v 0.000001 -1.534778 1.115095
v 0.000001 -1.804247 0.586234
v 0.000001 -1.897087 -0.000004
v 47.905456 -46.788382 -15.202464
v 47.905456 -39.800572 -28.916802
v 47.905456 -28.916822 -39.800569
v 47.905456 -15.202464 -46.788382
v 47.905456 -0.000003 -49.196216
v 47.905456 15.202462 -46.788376
v 47.905456 28.916802 -39.800557
v 47.905456 39.800555 -28.916796
v 47.905456 46.788371 -15.202455
v 47.905456 49.196205 0.000005
v 47.905456 46.788371 15.202461
v 47.905456 39.800552 28.916796
v 47.905456 28.916796 39.800557
v 47.905456 15.202458 46.788371
v 47.905456 -0.000002 49.196205
v 47.905456 -15.202458 46.788368
v 47.905456 -28.916796 39.800552
v 47.905456 -39.800549 28.916796
v 47.905456 -46.788365 15.202461
v 47.905456 -49.196199 0.000005
vt 0.514212 0.501819
vt 0.512952 0.506121
vt 0.510424 0.509822
vt 0.506878 0.512564
vt 0.502657 0.514074
vt 0.498177 0.514206
vt 0.493875 0.512946
vt 0.490172 0.510421
vt 0.487431 0.506875
vt 0.485920 0.502655
vt 0.485789 0.498174
vt 0.487047 0.493872
vt 0.489575 0.490170
vt 0.493123 0.487431
vt 0.497344 0.485923
vt 0.501824 0.485788
vt 0.506127 0.487046
vt 0.509829 0.489572
vt 0.512569 0.493119
vt 0.514080 0.497339
vt 1.000000 0.590941
vt 1.000000 0.736644
vt 1.000000 1.000000
vt 0.712037 1.000000
vt 0.563662 1.000000
vt 0.409057 1.000000
vt 0.263353 1.000000
vt 0.000000 1.000000
vt 0.000000 0.712034
vt 0.000000 0.563658
vt 0.000000 0.409051
vt 0.000000 0.200000
vt 0.000000 0.000000
vt 0.287965 0.000000
vt 0.436337 0.000000
vt 0.590943 0.000000
vt 0.736647 0.000000
vt 1.000000 0.000000
vt 1.000000 0.287958
vt 1.000000 0.436334
vn 0.702589 0.676768 0.219894
vn 0.702589 0.676768 0.219895
vn 0.702589 0.575693 0.418265
vn 0.702589 0.575693 0.418265
vn 0.702589 0.418265 0.575693
vn 0.702589 0.418265 0.575693
vn 0.702589 0.219895 0.676768
vn 0.702589 0.219895 0.676768
vn 0.702589 0.000000 0.711596
vn 0.702589 0.000000 0.711596
vn 0.702589 -0.219895 0.676768
vn 0.702589 -0.219895 0.676768
vn 0.702589 -0.418266 0.575693
vn 0.702589 -0.418266 0.575693
vn 0.702589 -0.575693 0.418266
vn 0.702589 -0.575693 0.418266
vn 0.702589 -0.676768 0.219895
vn 0.702589 -0.676768 0.219895
vn 0.702589 -0.711596 -0.000000
vn 0.702589 -0.711596 0.000000
vn 0.702589 -0.676768 -0.219895
vn 0.702589 -0.676768 -0.219895
vn 0.702589 -0.575693 -0.418266
vn 0.702589 -0.575693 -0.418266
vn 0.702589 -0.418266 -0.575693
vn 0.702589 -0.418266 -0.575693
vn 0.702589 -0.219895 -0.676768
vn 0.702589 -0.219895 -0.676768
vn 0.702589 0.000000 -0.711596
vn 0.702589 0.000000 -0.711596
vn 0.702589 0.219895 -0.676768
vn 0.702589 0.219895 -0.676768
vn 0.702589 0.418266 -0.575693
vn 0.702589 0.418266 -0.575693
vn 0.702589 0.575693 -0.418266
vn 0.702589 0.575693 -0.418266
vn 0.702589 0.676768 -0.219895
vn 0.702589 0.676768 -0.219895
vn 0.702589 0.711596 -0.000000
vn 0.702589 0.711596 -0.000000
s 1
g pCylinder7
usemtl lambert2SG
f 1/1/1 21/21/2 22/22/3 2/2/4
f 2/2/4 22/22/3 23/23/5 3/3/6
f 3/3/6 23/23/5 24/24/7 4/4/8
f 4/4/8 24/24/7 25/25/9 5/5/10
f 5/5/10 25/25/9 26/26/11 6/6/12
f 6/6/12 26/26/11 27/27/13 7/7/14
f 7/7/14 27/27/13 28/28/15 8/8/16
f 8/8/16 28/28/15 29/29/17 9/9/18
f 9/9/18 29/29/17 30/30/19 10/10/20
f 10/10/20 30/30/19 31/31/21 11/11/22
f 11/11/22 31/31/21 32/32/23 12/12/24
f 12/12/24 32/32/23 33/33/25 13/13/26
f 13/13/26 33/33/25 34/34/27 14/14/28
f 14/14/28 34/34/27 35/35/29 15/15/30
f 15/15/30 35/35/29 36/36/31 16/16/32
f 16/16/32 36/36/31 37/37/33 17/17/34
f 17/17/34 37/37/33 38/38/35 18/18/36
f 18/18/36 38/38/35 39/39/37 19/19/38
f 19/19/38 39/39/37 40/40/39 20/20/40
f 20/20/40 40/40/39 21/21/2 1/1/1
