# This file uses centimeters as units for non-parametric coordinates.

mtllib Lighting.mtl
g default
v -152.873291 45.389137 -641.089660
v -119.371072 236.554873 -688.313669
v -87.860911 450.699372 -648.005358
v -93.154497 629.704302 -479.825885
v -78.210150 706.459424 -227.382426
v -80.723283 660.020671 13.752087
v -166.610138 540.333546 217.675513
v -250.674684 386.462227 375.305884
v -315.944820 260.678828 503.125454
v -365.663083 115.357127 595.320021
v -373.342861 -34.664071 637.660979
v -76.426688 -3.879934 -618.698191
v -25.752705 206.067892 -678.103841
v 8.892568 422.782292 -649.918077
v 2.476167 600.196976 -496.805497
v 8.415721 663.933157 -259.091230
v 0.828369 616.880896 -16.248456
v -78.471319 511.322337 196.673524
v -149.173464 377.792490 362.404711
v -213.122891 252.928460 495.443252
v -263.709593 109.227670 592.879178
v -284.794331 -58.552747 643.541186
v 9.420303 -3.973422 -600.133637
v 64.470306 174.302647 -651.136983
v 100.921304 386.523934 -633.876036
v 92.935711 551.855087 -499.762267
v 81.639395 601.141025 -282.857009
v 65.269288 558.197204 -45.044709
v 2.954375 469.034638 169.889590
v -43.315121 361.793822 341.226050
v -103.341086 240.466242 477.869755
v -153.458397 99.900429 578.549356
v -185.479097 -44.338037 628.930900
v -230.269270 -62.499161 639.235959
v -209.751011 104.595499 586.435012
v -159.213798 246.877054 487.199023
v -97.101842 370.106008 352.159730
v -38.007714 490.709604 183.350783
v 33.671586 588.215495 -31.254162
v 45.627759 633.770278 -272.399350
v 47.869519 577.526710 -499.970229
v 55.227993 405.359255 -643.574066
v 19.586117 190.251124 -666.026749
v -30.703944 -18.455989 -604.084572
v -336.840820 -57.252271 643.912184
v -315.319230 112.525986 595.217707
v -265.301600 257.136317 500.225087
v -200.404470 383.185710 369.820957
v -120.891807 528.335624 208.047826
v -36.796644 641.384940 -0.925511
v -32.705321 688.813653 -243.395489
v -44.960856 617.838733 -489.456148
v -38.962203 437.848011 -650.852428
v -72.222255 221.737913 -684.999538
v -123.261341 9.328457 -628.244171
v -166.314143 18.887372 609.874207
v -131.611739 173.164671 533.442618
v -71.183364 302.566171 413.503856
v -23.407584 417.122510 260.972679
v 35.285085 516.484147 67.094234
v 81.182883 587.994653 -163.268051
v 83.401351 591.739179 -397.386774
v 104.356548 480.855811 -580.932167
v 85.630378 281.299590 -656.115492
v 39.296140 69.385881 -623.253806
v -277.211034 27.728261 622.169147
v -241.752496 184.035262 549.347912
v -180.011310 316.023273 432.843741
v -119.656385 444.551050 284.884599
v -32.936255 570.103911 95.728044
v 14.437721 649.649397 -135.688483
v 0.105968 649.656215 -382.227681
v 11.673212 520.129995 -588.966389
v -5.232624 315.728755 -678.770606
v -51.466308 100.189397 -652.987958
v -379.686417 31.815914 622.651626
v -344.157744 191.115075 554.493320
v -283.275224 324.400121 443.312556
v -215.380603 461.175233 300.973536
v -115.003049 609.373587 121.970311
v -68.832548 693.814283 -103.580024
v -92.150636 686.040979 -356.084072
v -85.038719 545.544259 -580.460370
v -100.372052 345.657156 -683.305993
v -144.995950 128.760705 -667.029057
v -222.942043 23.316486 617.106545
v -187.807209 178.821215 542.072316
v -126.316998 309.379706 423.600044
v -72.210498 431.220960 273.153865
v 1.435344 543.897914 81.160259
v 48.574350 619.751906 -150.464002
v 42.107745 622.180704 -391.388798
v 58.164531 501.589116 -586.593654
v 40.523030 298.900853 -669.157617
v -6.074177 84.608111 -639.499226
v -329.140322 30.009515 623.904284
v -293.703584 187.918807 552.992510
v -232.329456 320.590252 438.955622
v -167.212583 454.719059 293.927493
v -71.153169 592.586179 109.435959
v -24.458812 674.894830 -119.546419
v -44.956202 671.518499 -369.654170
v -36.307967 534.704674 -586.381032
v -52.343815 331.416693 -682.960602
v -98.141272 114.551171 -661.646217
vt 0.009766 0.048622
vt 0.107812 0.048622
vt 0.205859 0.048622
vt 0.303906 0.048622
vt 0.401953 0.048622
vt 0.500000 0.048622
vt 0.598047 0.048622
vt 0.696094 0.048622
vt 0.794141 0.048622
vt 0.892187 0.048622
vt 0.990234 0.048622
vt 0.009766 0.492645
vt 0.107812 0.492645
vt 0.205859 0.492645
vt 0.303906 0.492645
vt 0.401953 0.492645
vt 0.500000 0.492645
vt 0.598047 0.492645
vt 0.696094 0.492645
vt 0.794141 0.492645
vt 0.892187 0.492645
vt 0.990234 0.492645
vt 0.009766 0.936667
vt 0.107812 0.936667
vt 0.205859 0.936667
vt 0.303906 0.936667
vt 0.401953 0.936667
vt 0.500000 0.936667
vt 0.598047 0.936667
vt 0.696094 0.936667
vt 0.794141 0.936667
vt 0.892187 0.936667
vt 0.990234 0.936667
vt 0.990234 0.714656
vt 0.892187 0.714656
vt 0.794141 0.714656
vt 0.696094 0.714656
vt 0.598047 0.714656
vt 0.500000 0.714656
vt 0.401953 0.714656
vt 0.303906 0.714656
vt 0.205859 0.714656
vt 0.107812 0.714656
vt 0.009766 0.714656
vt 0.990234 0.270633
vt 0.892187 0.270633
vt 0.794141 0.270633
vt 0.696094 0.270633
vt 0.598047 0.270633
vt 0.500000 0.270633
vt 0.401953 0.270633
vt 0.303906 0.270633
vt 0.205859 0.270633
vt 0.107812 0.270633
vt 0.009766 0.270633
vt 0.941211 0.936667
vt 0.843164 0.936667
vt 0.745117 0.936667
vt 0.647070 0.936667
vt 0.549023 0.936667
vt 0.450977 0.936667
vt 0.352930 0.936667
vt 0.254883 0.936667
vt 0.156836 0.936667
vt 0.058789 0.936667
vt 0.941211 0.492645
vt 0.843164 0.492645
vt 0.745117 0.492645
vt 0.647070 0.492645
vt 0.549023 0.492645
vt 0.450977 0.492645
vt 0.352930 0.492645
vt 0.254883 0.492645
vt 0.156836 0.492645
vt 0.058789 0.492645
vt 0.941211 0.048622
vt 0.843164 0.048622
vt 0.745117 0.048622
vt 0.647070 0.048622
vt 0.549023 0.048622
vt 0.450977 0.048622
vt 0.352930 0.048622
vt 0.254883 0.048622
vt 0.156836 0.048622
vt 0.058789 0.048622
vt 0.941211 0.714656
vt 0.843164 0.714656
vt 0.745117 0.714656
vt 0.647070 0.714656
vt 0.549023 0.714656
vt 0.450977 0.714656
vt 0.352930 0.714656
vt 0.254883 0.714656
vt 0.156836 0.714656
vt 0.058789 0.714656
vt 0.941211 0.270633
vt 0.843164 0.270633
vt 0.745117 0.270633
vt 0.647070 0.270633
vt 0.549023 0.270633
vt 0.450977 0.270633
vt 0.352930 0.270633
vt 0.254883 0.270633
vt 0.156836 0.270633
vt 0.058789 0.270633
vn 0.026923 -0.304318 -0.952190
vn 0.026292 -0.245897 -0.968939
vn 0.057896 -0.267772 -0.961741
vn 0.070047 -0.319506 -0.944992
vn 0.036655 -0.086029 -0.995618
vn 0.053117 0.174552 -0.983214
vn 0.089373 0.143204 -0.985650
vn 0.068108 -0.110700 -0.991517
vn 0.061737 0.452990 -0.889375
vn 0.071611 0.690185 -0.720081
vn 0.122936 0.665425 -0.736272
vn 0.104034 0.419919 -0.901579
vn 0.122688 0.855978 -0.502245
vn 0.226294 0.936554 -0.267688
vn 0.286925 0.915762 -0.281163
vn 0.178133 0.835761 -0.519396
vn 0.347583 0.937070 -0.032951
vn 0.434371 0.879542 0.194236
vn 0.505426 0.845499 0.172268
vn 0.414120 0.908888 -0.049273
vn 0.457074 0.792042 0.404665
vn 0.406256 0.699926 0.587418
vn 0.479808 0.680465 0.553852
vn 0.529862 0.759397 0.377574
vn 0.300966 0.651512 0.696385
vn 0.196923 0.659970 0.725025
vn 0.245704 0.657831 0.711961
vn 0.367503 0.644297 0.670688
vn 0.134294 0.692159 0.709141
vn 0.107508 0.677911 0.727241
vn 0.127312 0.681773 0.720401
vn 0.164497 0.687850 0.706967
vn 0.084851 0.611541 0.786650
vn 0.055759 0.518299 0.853380
vn 0.077669 0.527584 0.845945
vn 0.104807 0.619139 0.778256
vn 0.021103 0.388845 0.921061
vn -0.007242 0.277486 0.960702
vn 0.017948 0.276801 0.960760
vn 0.045923 0.398736 0.915915
vn 0.130959 -0.339140 -0.931576
vn 0.127949 -0.297269 -0.946182
vn 0.191900 -0.318429 -0.928320
vn 0.183737 -0.356070 -0.916218
vn 0.146586 -0.147429 -0.978150
vn 0.177334 0.100028 -0.979054
vn 0.257829 0.058966 -0.964389
vn 0.218591 -0.179610 -0.959145
vn 0.202582 0.379791 -0.902618
vn 0.236670 0.639509 -0.731448
vn 0.337420 0.610832 -0.716263
vn 0.291526 0.338639 -0.894615
vn 0.309154 0.811669 -0.495598
vn 0.428664 0.867486 -0.252418
vn 0.532315 0.820456 -0.208549
vn 0.418978 0.784665 -0.456900
vn 0.550549 0.833906 -0.038694
vn 0.630235 0.759054 0.163217
vn 0.696650 0.698949 0.161708
vn 0.634929 0.772385 -0.016918
vn 0.645408 0.674002 0.359402
vn 0.587032 0.619512 0.521152
vn 0.638284 0.599498 0.482903
vn 0.700761 0.625356 0.343313
vn 0.463754 0.624125 0.628808
vn 0.323514 0.662320 0.675774
vn 0.366270 0.688424 0.626034
vn 0.513219 0.637602 0.574517
vn 0.224697 0.688351 0.689699
vn 0.177993 0.673060 0.717850
vn 0.213020 0.670498 0.710672
vn 0.260470 0.701610 0.663248
vn 0.153866 0.612196 0.775591
vn 0.130875 0.523552 0.841882
vn 0.172412 0.520804 0.836084
vn 0.192071 0.607418 0.770813
vn 0.104548 0.399530 0.910739
vn 0.077659 0.278836 0.957194
vn 0.127905 0.285798 0.949716
vn 0.150919 0.399991 0.904008
vn 0.144820 0.297973 0.943525
vn 0.112393 0.237751 0.964802
vn 0.133444 0.241869 0.961089
vn 0.064261 0.232687 0.970426
vn 0.162469 0.411356 0.896878
vn 0.181985 0.532365 0.826722
vn 0.199561 0.618418 0.760088
vn 0.219635 0.681274 0.698302
vn 0.270555 0.718529 0.640715
vn 0.381753 0.709066 0.592866
vn 0.532680 0.651917 0.539681
vn 0.653815 0.602300 0.457996
vn 0.713020 0.620024 0.327373
vn 0.711026 0.686071 0.154102
vn 0.656022 0.754674 -0.010137
vn 0.559790 0.804259 -0.199505
vn 0.449540 0.763378 -0.463861
vn 0.368261 0.574783 -0.730758
vn 0.321317 0.300530 -0.898018
vn 0.284340 0.026771 -0.958350
vn 0.241201 -0.203446 -0.948911
vn 0.215776 -0.327156 -0.920005
vn 0.210958 -0.365914 -0.906424
vn 0.010450 0.227062 0.973824
vn -0.021755 0.222209 0.974756
s 1
g pSphere1
usemtl initialShadingGroup
f 1/1/1 85/85/2 105/105/3 55/55/4
f 2/2/5 84/84/6 104/104/7 54/54/8
f 3/3/9 83/83/10 103/103/11 53/53/12
f 4/4/13 82/82/14 102/102/15 52/52/16
f 5/5/17 81/81/18 101/101/19 51/51/20
f 6/6/21 80/80/22 100/100/23 50/50/24
f 7/7/25 79/79/26 99/99/27 49/49/28
f 8/8/29 78/78/30 98/98/31 48/48/32
f 9/9/33 77/77/34 97/97/35 47/47/36
f 10/10/37 76/76/38 96/96/39 46/46/40
f 12/12/41 75/75/42 95/95/43 44/44/44
f 13/13/45 74/74/46 94/94/47 43/43/48
f 14/14/49 73/73/50 93/93/51 42/42/52
f 15/15/53 72/72/54 92/92/55 41/41/56
f 16/16/57 71/71/58 91/91/59 40/40/60
f 17/17/61 70/70/62 90/90/63 39/39/64
f 18/18/65 69/69/66 89/89/67 38/38/68
f 19/19/69 68/68/70 88/88/71 37/37/72
f 20/20/73 67/67/74 87/87/75 36/36/76
f 21/21/77 66/66/78 86/86/79 35/35/80
f 56/56/81 86/86/79 34/34/82 33/33/83
f 34/34/82 86/86/79 66/66/78 22/22/84
f 35/35/80 86/86/79 56/56/81 32/32/85
f 57/57/86 87/87/75 35/35/80 32/32/85
f 35/35/80 87/87/75 67/67/74 21/21/77
f 36/36/76 87/87/75 57/57/86 31/31/87
f 58/58/88 88/88/71 36/36/76 31/31/87
f 36/36/76 88/88/71 68/68/70 20/20/73
f 37/37/72 88/88/71 58/58/88 30/30/89
f 59/59/90 89/89/67 37/37/72 30/30/89
f 37/37/72 89/89/67 69/69/66 19/19/69
f 38/38/68 89/89/67 59/59/90 29/29/91
f 60/60/92 90/90/63 38/38/68 29/29/91
f 38/38/68 90/90/63 70/70/62 18/18/65
f 39/39/64 90/90/63 60/60/92 28/28/93
f 61/61/94 91/91/59 39/39/64 28/28/93
f 39/39/64 91/91/59 71/71/58 17/17/61
f 40/40/60 91/91/59 61/61/94 27/27/95
f 62/62/96 92/92/55 40/40/60 27/27/95
f 40/40/60 92/92/55 72/72/54 16/16/57
f 41/41/56 92/92/55 62/62/96 26/26/97
f 63/63/98 93/93/51 41/41/56 26/26/97
f 41/41/56 93/93/51 73/73/50 15/15/53
f 42/42/52 93/93/51 63/63/98 25/25/99
f 64/64/100 94/94/47 42/42/52 25/25/99
f 42/42/52 94/94/47 74/74/46 14/14/49
f 43/43/48 94/94/47 64/64/100 24/24/101
f 65/65/102 95/95/43 43/43/48 24/24/101
f 43/43/48 95/95/43 75/75/42 13/13/45
f 44/44/44 95/95/43 65/65/102 23/23/103
f 66/66/78 96/96/39 45/45/104 22/22/84
f 45/45/104 96/96/39 76/76/38 11/11/105
f 46/46/40 96/96/39 66/66/78 21/21/77
f 67/67/74 97/97/35 46/46/40 21/21/77
f 46/46/40 97/97/35 77/77/34 10/10/37
f 47/47/36 97/97/35 67/67/74 20/20/73
f 68/68/70 98/98/31 47/47/36 20/20/73
f 47/47/36 98/98/31 78/78/30 9/9/33
f 48/48/32 98/98/31 68/68/70 19/19/69
f 69/69/66 99/99/27 48/48/32 19/19/69
f 48/48/32 99/99/27 79/79/26 8/8/29
f 49/49/28 99/99/27 69/69/66 18/18/65
f 70/70/62 100/100/23 49/49/28 18/18/65
f 49/49/28 100/100/23 80/80/22 7/7/25
f 50/50/24 100/100/23 70/70/62 17/17/61
f 71/71/58 101/101/19 50/50/24 17/17/61
f 50/50/24 101/101/19 81/81/18 6/6/21
f 51/51/20 101/101/19 71/71/58 16/16/57
f 72/72/54 102/102/15 51/51/20 16/16/57
f 51/51/20 102/102/15 82/82/14 5/5/17
f 52/52/16 102/102/15 72/72/54 15/15/53
f 73/73/50 103/103/11 52/52/16 15/15/53
f 52/52/16 103/103/11 83/83/10 4/4/13
f 53/53/12 103/103/11 73/73/50 14/14/49
f 74/74/46 104/104/7 53/53/12 14/14/49
f 53/53/12 104/104/7 84/84/6 3/3/9
f 54/54/8 104/104/7 74/74/46 13/13/45
f 75/75/42 105/105/3 54/54/8 13/13/45
f 54/54/8 105/105/3 85/85/2 2/2/5
f 55/55/4 105/105/3 75/75/42 12/12/41
